<svg width="54" height="54" viewBox="0 0 54 54" fill="none" xmlns="http://www.w3.org/2000/svg">
<g filter="url(#filter0_d_261936_10548)">
<rect x="4" y="4" width="46" height="46" rx="23" fill="#29ABE2"/>
<path d="M41 35C41 35.5304 40.7893 36.0391 40.4142 36.4142C40.0391 36.7893 39.5304 37 39 37H15C14.4696 37 13.9609 36.7893 13.5858 36.4142C13.2107 36.0391 13 35.5304 13 35V23C13 22.4696 13.2107 21.9609 13.5858 21.5858C13.9609 21.2107 14.4696 21 15 21H17.344C18.9345 20.9991 20.4595 20.3668 21.584 19.242L23.244 17.586C23.618 17.2119 24.125 17.0012 24.654 17H29.342C29.8724 17.0001 30.381 17.2109 30.756 17.586L32.412 19.242C32.9693 19.7994 33.6309 20.2416 34.3591 20.5432C35.0873 20.8449 35.8678 21.0001 36.656 21H39C39.5304 21 40.0391 21.2107 40.4142 21.5858C40.7893 21.9609 41 22.4696 41 23V35ZM15 19C13.9391 19 12.9217 19.4214 12.1716 20.1716C11.4214 20.9217 11 21.9391 11 23V35C11 36.0609 11.4214 37.0783 12.1716 37.8284C12.9217 38.5786 13.9391 39 15 39H39C40.0609 39 41.0783 38.5786 41.8284 37.8284C42.5786 37.0783 43 36.0609 43 35V23C43 21.9391 42.5786 20.9217 41.8284 20.1716C41.0783 19.4214 40.0609 19 39 19H36.656C35.5952 18.9998 34.578 18.5782 33.828 17.828L32.172 16.172C31.422 15.4218 30.4048 15.0002 29.344 15H24.656C23.5952 15.0002 22.578 15.4218 21.828 16.172L20.172 17.828C19.422 18.5782 18.4048 18.9998 17.344 19H15Z" fill="white"/>
<path d="M27 33C25.6739 33 24.4021 32.4732 23.4645 31.5355C22.5268 30.5979 22 29.3261 22 28C22 26.6739 22.5268 25.4021 23.4645 24.4645C24.4021 23.5268 25.6739 23 27 23C28.3261 23 29.5979 23.5268 30.5355 24.4645C31.4732 25.4021 32 26.6739 32 28C32 29.3261 31.4732 30.5979 30.5355 31.5355C29.5979 32.4732 28.3261 33 27 33ZM27 35C28.8565 35 30.637 34.2625 31.9497 32.9497C33.2625 31.637 34 29.8565 34 28C34 26.1435 33.2625 24.363 31.9497 23.0503C30.637 21.7375 28.8565 21 27 21C25.1435 21 23.363 21.7375 22.0503 23.0503C20.7375 24.363 20 26.1435 20 28C20 29.8565 20.7375 31.637 22.0503 32.9497C23.363 34.2625 25.1435 35 27 35ZM17 24C17 24.2652 16.8946 24.5196 16.7071 24.7071C16.5196 24.8946 16.2652 25 16 25C15.7348 25 15.4804 24.8946 15.2929 24.7071C15.1054 24.5196 15 24.2652 15 24C15 23.7348 15.1054 23.4804 15.2929 23.2929C15.4804 23.1054 15.7348 23 16 23C16.2652 23 16.5196 23.1054 16.7071 23.2929C16.8946 23.4804 17 23.7348 17 24Z" fill="white"/>
</g>
<defs>
<filter id="filter0_d_261936_10548" x="0" y="0" width="54" height="54" filterUnits="userSpaceOnUse" color-interpolation-filters="sRGB">
<feFlood flood-opacity="0" result="BackgroundImageFix"/>
<feColorMatrix in="SourceAlpha" type="matrix" values="0 0 0 0 0 0 0 0 0 0 0 0 0 0 0 0 0 0 127 0" result="hardAlpha"/>
<feOffset/>
<feGaussianBlur stdDeviation="2"/>
<feColorMatrix type="matrix" values="0 0 0 0 0 0 0 0 0 0 0 0 0 0 0 0 0 0 0.1 0"/>
<feBlend mode="normal" in2="BackgroundImageFix" result="effect1_dropShadow_261936_10548"/>
<feBlend mode="normal" in="SourceGraphic" in2="effect1_dropShadow_261936_10548" result="shape"/>
</filter>
</defs>
</svg>
