<svg width="32" height="32" viewBox="0 0 32 32" fill="none" xmlns="http://www.w3.org/2000/svg">
<rect x="32" y="32" width="32" height="32" rx="16" transform="rotate(-180 32 32)" fill="#EEEEEE"/>
<path d="M23.2925 17.3332L5.80189 17.3332C5.06551 17.3332 4.46856 16.7363 4.46856 15.9999C4.46856 15.2635 5.06551 14.6665 5.80189 14.6665L23.2925 14.6665L17.0831 8.45721C16.5625 7.93659 16.5625 7.0925 17.0832 6.57188C17.6038 6.05126 18.4479 6.05126 18.9685 6.57188L26.9823 14.5857C27.7633 15.3667 27.7633 16.633 26.9823 17.4141L18.9685 25.4279C18.4479 25.9485 17.6038 25.9485 17.0832 25.4279C16.5625 24.9073 16.5625 24.0632 17.0832 23.5425L23.2925 17.3332Z" fill="#29ABE2"/>
</svg>
