<svg width="30" height="22" viewBox="0 0 30 22" fill="none" xmlns="http://www.w3.org/2000/svg">
<path d="M13.3333 10.7333V2.66667C11.6444 2.97778 10.3333 3.79444 9.4 5.11667C8.46667 6.43889 8 7.8 8 9.2H7.33333C6.04444 9.2 4.94444 9.65556 4.03333 10.5667C3.12222 11.4778 2.66667 12.5778 2.66667 13.8667C2.66667 15.1556 3.12222 16.2556 4.03333 17.1667C4.94444 18.0778 6.04444 18.5333 7.33333 18.5333H23.3333C24.2667 18.5333 25.0556 18.2111 25.7 17.5667C26.3444 16.9222 26.6667 16.1333 26.6667 15.2C26.6667 14.2667 26.3444 13.4778 25.7 12.8333C25.0556 12.1889 24.2667 11.8667 23.3333 11.8667H21.3333V9.2C21.3333 8.13333 21.0889 7.13889 20.6 6.21667C20.1111 5.29444 19.4667 4.51111 18.6667 3.86667V0.766667C20.3111 1.54444 21.6111 2.69444 22.5667 4.21667C23.5222 5.73889 24 7.4 24 9.2C25.5333 9.37778 26.8056 10.0389 27.8167 11.1833C28.8278 12.3278 29.3333 13.6667 29.3333 15.2C29.3333 16.8667 28.75 18.2833 27.5833 19.45C26.4167 20.6167 25 21.2 23.3333 21.2H7.33333C5.31111 21.2 3.58333 20.5 2.15 19.1C0.716667 17.7 0 15.9889 0 13.9667C0 12.2333 0.522222 10.6889 1.56667 9.33333C2.61111 7.97778 3.97778 7.11111 5.66667 6.73333C6.04444 5.13333 6.98889 3.61111 8.5 2.16667C10.0111 0.722222 11.6222 0 13.3333 0C14.0667 0 14.6944 0.261111 15.2167 0.783333C15.7389 1.30556 16 1.93333 16 2.66667V10.7333L17.2 9.56667C17.4444 9.32222 17.75 9.2 18.1167 9.2C18.4833 9.2 18.8 9.33333 19.0667 9.6C19.3111 9.84445 19.4333 10.1556 19.4333 10.5333C19.4333 10.9111 19.3111 11.2222 19.0667 11.4667L15.6 14.9333C15.3333 15.2 15.0222 15.3333 14.6667 15.3333C14.3111 15.3333 14 15.2 13.7333 14.9333L10.2667 11.4667C10.0222 11.2222 9.89444 10.9167 9.88333 10.55C9.87222 10.1833 10 9.86667 10.2667 9.6C10.5111 9.35556 10.8167 9.22778 11.1833 9.21667C11.55 9.20556 11.8667 9.32222 12.1333 9.56667L13.3333 10.7333Z" fill="white"/>
</svg>
