<svg width="32" height="32" viewBox="0 0 32 32" fill="none" xmlns="http://www.w3.org/2000/svg">
<mask id="mask0_261640_19578" style="mask-type:alpha" maskUnits="userSpaceOnUse" x="0" y="0" width="32" height="32">
<rect width="32" height="32" fill="#D9D9D9"/>
</mask>
<g mask="url(#mask0_261640_19578)">
<path d="M11.3333 14H10C9.62222 14 9.30556 13.8722 9.05 13.6167C8.79444 13.3611 8.66667 13.0444 8.66667 12.6667C8.66667 12.2889 8.79444 11.9722 9.05 11.7167C9.30556 11.4611 9.62222 11.3333 10 11.3333H11.3333V10C11.3333 9.62222 11.4611 9.30556 11.7167 9.05C11.9722 8.79444 12.2889 8.66667 12.6667 8.66667C13.0444 8.66667 13.3611 8.79444 13.6167 9.05C13.8722 9.30556 14 9.62222 14 10V11.3333H15.3333C15.7111 11.3333 16.0278 11.4611 16.2833 11.7167C16.5389 11.9722 16.6667 12.2889 16.6667 12.6667C16.6667 13.0444 16.5389 13.3611 16.2833 13.6167C16.0278 13.8722 15.7111 14 15.3333 14H14V15.3333C14 15.7111 13.8722 16.0278 13.6167 16.2833C13.3611 16.5389 13.0444 16.6667 12.6667 16.6667C12.2889 16.6667 11.9722 16.5389 11.7167 16.2833C11.4611 16.0278 11.3333 15.7111 11.3333 15.3333V14ZM12.6667 21.3333C10.2444 21.3333 8.19444 20.4944 6.51667 18.8167C4.83889 17.1389 4 15.0889 4 12.6667C4 10.2444 4.83889 8.19444 6.51667 6.51667C8.19444 4.83889 10.2444 4 12.6667 4C15.0889 4 17.1389 4.83889 18.8167 6.51667C20.4944 8.19444 21.3333 10.2444 21.3333 12.6667C21.3333 13.6444 21.1778 14.5667 20.8667 15.4333C20.5556 16.3 20.1333 17.0667 19.6 17.7333L27.0667 25.2C27.3111 25.4444 27.4333 25.7556 27.4333 26.1333C27.4333 26.5111 27.3111 26.8222 27.0667 27.0667C26.8222 27.3111 26.5111 27.4333 26.1333 27.4333C25.7556 27.4333 25.4444 27.3111 25.2 27.0667L17.7333 19.6C17.0667 20.1333 16.3 20.5556 15.4333 20.8667C14.5667 21.1778 13.6444 21.3333 12.6667 21.3333ZM12.6667 18.6667C14.3333 18.6667 15.75 18.0833 16.9167 16.9167C18.0833 15.75 18.6667 14.3333 18.6667 12.6667C18.6667 11 18.0833 9.58333 16.9167 8.41667C15.75 7.25 14.3333 6.66667 12.6667 6.66667C11 6.66667 9.58333 7.25 8.41667 8.41667C7.25 9.58333 6.66667 11 6.66667 12.6667C6.66667 14.3333 7.25 15.75 8.41667 16.9167C9.58333 18.0833 11 18.6667 12.6667 18.6667Z" fill="white"/>
</g>
</svg>
