<svg xmlns="http://www.w3.org/2000/svg">

  <symbol id="icon-add" viewBox="0 0 24 24">
    <path d="M11.429 13.571H6.07q-.455 0-.763-.308A1.04 1.04 0 0 1 5 12.5q0-.455.308-.763.308-.309.763-.308h5.358V6.07q0-.455.308-.763T12.5 5t.763.308.308.763v5.358h5.358q.455 0 .763.308T20 12.5t-.308.763-.763.308H13.57v5.358q0 .455-.308.763T12.5 20t-.763-.308a1.04 1.04 0 0 1-.308-.763z" fill="currentColor" />
  </symbol>

  <symbol id="icon-arrow-left" viewBox="0 0 24 24">
    <path d="M7.776 11.617h11.358c.478 0 .866.395.866.883a.874.874 0 0 1-.866.883H7.776l4.033 4.11a.895.895 0 0 1 0 1.249.854.854 0 0 1-1.225 0L5.38 13.435a1.34 1.34 0 0 1 0-1.872l5.204-5.305a.854.854 0 0 1 1.225 0 .895.895 0 0 1 0 1.248z" fill="currentColor" />
  </symbol>

  <symbol id="icon-arrow-right" viewBox="0 0 24 24">
    <path d="M17.224 11.617H5.866A.874.874 0 0 0 5 12.5c0 .488.388.883.866.883h11.358l-4.033 4.11a.895.895 0 0 0 0 1.249.854.854 0 0 0 1.225 0l5.204-5.306a1.34 1.34 0 0 0 0-1.872l-5.204-5.305a.854.854 0 0 0-1.225 0 .895.895 0 0 0 0 1.248z" fill="currentColor" />
  </symbol>

  <symbol id="icon-arrow-down" viewBox="0 0 24 24">
    <path d="M11.637 15.438v-9.58a.83.83 0 0 1 .247-.612.83.83 0 0 1 .61-.246.83.83 0 0 1 .611.246.83.83 0 0 1 .247.611v9.581l4.2-4.2a.79.79 0 0 1 .601-.247.86.86 0 0 1 .6.268q.236.257.247.6a.79.79 0 0 1-.247.6l-5.658 5.659a.75.75 0 0 1-.279.182 1 1 0 0 1-.322.053 1 1 0 0 1-.321-.053.75.75 0 0 1-.279-.183L6.236 12.46a.8.8 0 0 1-.236-.59q0-.353.236-.61a.84.84 0 0 1 .61-.258q.354 0 .611.258z" fill="currentColor" />
  </symbol>

  <symbol id="icon-arrow-up" viewBox="0 0 24 24">
    <path d="M11.637 7.562v9.58a.83.83 0 0 0 .247.611.83.83 0 0 0 .61.247.83.83 0 0 0 .611-.247.83.83 0 0 0 .247-.61V7.562l4.2 4.2a.79.79 0 0 0 .601.247.86.86 0 0 0 .6-.268.9.9 0 0 0 .247-.6.79.79 0 0 0-.247-.6l-5.658-5.659a.75.75 0 0 0-.279-.182 1 1 0 0 0-.322-.053 1 1 0 0 0-.321.053.75.75 0 0 0-.279.182l-5.658 5.659a.8.8 0 0 0-.236.59q0 .353.236.61a.84.84 0 0 0 .61.258q.354 0 .611-.258z" fill="currentColor" />
  </symbol>

  <symbol id="icon-check" viewBox="0 0 24 24">
    <path d="m10.121 15.6 8.208-8.306A.94.94 0 0 1 19.02 7q.4 0 .69.294a.96.96 0 0 1 .291.698.96.96 0 0 1-.29.698l-8.91 9.016a.92.92 0 0 1-.679.294.92.92 0 0 1-.678-.294L5.28 13.492A.92.92 0 0 1 5 12.794q.014-.405.303-.698a.94.94 0 0 1 .69-.294q.4 0 .69.294z" fill="currentColor" />
  </symbol>

  <symbol id="icon-close" viewBox="0 0 24 24">
    <path d="m12 13.49-5.217 5.217a1 1 0 0 1-.745.293 1 1 0 0 1-.745-.293A1 1 0 0 1 5 17.962q0-.453.293-.745L10.509 12 5.293 6.783A1 1 0 0 1 5 6.038q0-.453.293-.745A1 1 0 0 1 6.038 5q.453 0 .745.293L12 10.509l5.217-5.216A1 1 0 0 1 17.962 5q.453 0 .745.293.293.292.293.745t-.293.745L13.491 12l5.216 5.217q.293.292.293.745t-.293.745a1 1 0 0 1-.745.293 1 1 0 0 1-.745-.293z" fill="currentColor" />
  </symbol>

  <symbol id="icon-delete" viewBox="0 0 24 24">
    <path d="M6.375 22a2.18 2.18 0 0 1-1.59-.653 2.13 2.13 0 0 1-.66-1.57V5.334q-.478 0-.802-.32A1.07 1.07 0 0 1 3 4.224q0-.474.323-.792.324-.32.802-.32h4.5q0-.473.323-.792Q9.272 2 9.75 2h4.5q.478 0 .802.32.323.318.323.791h4.5q.478 0 .802.32.323.319.323.791t-.323.792-.802.32v14.444q0 .916-.66 1.57a2.18 2.18 0 0 1-1.59.652zm0-16.667v14.445h11.25V5.333zm2.25 11.111q0 .473.323.792.324.32.802.32t.802-.32q.323-.32.323-.792V8.667q0-.473-.323-.792a1.1 1.1 0 0 0-.802-.32q-.478 0-.802.32a1.07 1.07 0 0 0-.323.792zm4.5 0q0 .473.323.792.324.32.802.32t.802-.32q.323-.32.323-.792V8.667q0-.473-.323-.792a1.1 1.1 0 0 0-.802-.32q-.478 0-.802.32a1.07 1.07 0 0 0-.323.792z" fill="currentColor" />
  </symbol>

  <symbol id="icon-download" viewBox="0 0 24 24">
    <path d="M11.09 12.088V6.761q-1.726.308-2.68 1.618t-.955 2.697H7q-1.319 0-2.25.902-.932.902-.932 2.18 0 1.276.932 2.179.931.902 2.25.902h10.91q.953 0 1.613-.638.66-.639.659-1.563 0-.925-.66-1.563-.658-.639-1.613-.639h-1.364v-1.76a4.04 4.04 0 0 0-.5-1.97 5 5 0 0 0-1.318-1.553V5.506a6.15 6.15 0 0 1 2.66 2.279 5.93 5.93 0 0 1 .977 3.29q1.568.177 2.602 1.31A3.8 3.8 0 0 1 22 15.038q0 1.65-1.193 2.806T17.909 19H7q-2.068 0-3.534-1.387Q2 16.227 2 14.223q0-1.716 1.068-3.06 1.068-1.342 2.796-1.716.386-1.585 1.931-3.016Q9.341 5 11.091 5q.75 0 1.284.517.534.518.534 1.244v5.327l.818-.77a.86.86 0 0 1 .625-.242.9.9 0 0 1 .648.264q.25.242.25.616 0 .375-.25.616l-2.364 2.29a.89.89 0 0 1-.636.264.89.89 0 0 1-.636-.264L9 12.572a.85.85 0 0 1-.261-.605A.8.8 0 0 1 9 11.34a.9.9 0 0 1 .625-.254.9.9 0 0 1 .648.232z" fill="currentColor" />
  </symbol>

  <symbol id="icon-dropdown-arrow-down" viewBox="0 0 24 24">
    <path d="m10.906 14.3-2.6-2.6q-.476-.476-.213-1.087.263-.613.938-.613h5.15q.675 0 .938.613.263.612-.213 1.087l-2.6 2.6q-.15.15-.325.225a.9.9 0 0 1-.375.075.9.9 0 0 1-.375-.075 1 1 0 0 1-.325-.225" fill="currentColor" />
  </symbol>

  <symbol id="icon-dropdown-arrow-up" viewBox="0 0 24 24">
    <path d="m12.306 10.3 2.6 2.6q.475.476.212 1.088-.262.612-.937.612H9.03q-.675 0-.938-.612-.262-.613.213-1.088l2.6-2.6q.15-.15.325-.225a.9.9 0 0 1 .375-.075q.2 0 .375.075t.325.225" fill="currentColor" />
  </symbol>

  <symbol id="icon-edit" viewBox="0 0 24 24">
    <path d="M5 19.25h1.4l8.625-8.625-1.4-1.4L5 17.85zM19.3 9.175l-4.25-4.2 1.4-1.4A1.92 1.92 0 0 1 17.863 3q.837 0 1.412.575l1.4 1.4q.574.575.6 1.388a1.8 1.8 0 0 1-.55 1.387zm-1.45 1.475-10.6 10.6H3V17L13.6 6.4z" fill="currentColor" />
  </symbol>

  <symbol id="icon-zoom-in" viewBox="0 0 24 24">
    <path d="M8.259 10.535H7.12q-.485 0-.81-.327a1.1 1.1 0 0 1-.328-.811 1.1 1.1 0 0 1 .327-.81q.327-.328.81-.328H8.26V7.12q0-.485.327-.81a1.1 1.1 0 0 1 .81-.328q.485 0 .812.327t.327.81V8.26h1.138q.484 0 .81.327a1.1 1.1 0 0 1 .328.81q0 .485-.327.812a1.1 1.1 0 0 1-.811.327h-1.138v1.138a1.1 1.1 0 0 1-.327.81 1.1 1.1 0 0 1-.811.328 1.1 1.1 0 0 1-.81-.327 1.1 1.1 0 0 1-.328-.811zm1.138 6.259q-3.1 0-5.25-2.148Q2 12.498 2 9.396q0-3.1 2.148-5.248T9.397 2q3.1 0 5.249 2.148t2.148 5.249a6.94 6.94 0 0 1-1.48 4.324l6.373 6.373q.313.312.313.796t-.313.797a1.08 1.08 0 0 1-.797.313 1.08 1.08 0 0 1-.796-.313l-6.373-6.373a6.937 6.937 0 0 1-4.324 1.48m0-2.276q2.133 0 3.627-1.494t1.494-3.627-1.494-3.627-3.627-1.494T5.77 5.77Q4.276 7.262 4.276 9.397q0 2.133 1.494 3.627 1.492 1.494 3.627 1.494" fill="currentColor" />
  </symbol>

  <symbol id="icon-zoom-out" viewBox="0 0 24 24">
    <path d="M7.69 10.535q-.485 0-.81-.327a1.1 1.1 0 0 1-.328-.811q0-.484.327-.81.327-.328.81-.328h3.415q.484 0 .81.327.328.327.328.81 0 .485-.327.812a1.1 1.1 0 0 1-.811.327zm1.707 6.259q-3.1 0-5.25-2.148Q2 12.498 2 9.396q0-3.1 2.148-5.248T9.397 2q3.1 0 5.249 2.148t2.148 5.249a6.94 6.94 0 0 1-1.48 4.324l6.373 6.373q.313.312.313.796t-.313.797a1.08 1.08 0 0 1-.797.313 1.08 1.08 0 0 1-.796-.313l-6.373-6.373a6.937 6.937 0 0 1-4.324 1.48m0-2.276q2.133 0 3.627-1.494t1.494-3.627-1.494-3.627-3.627-1.494T5.77 5.77Q4.276 7.262 4.276 9.397q0 2.133 1.494 3.627 1.492 1.494 3.627 1.494" fill="currentColor" />
  </symbol>

  <symbol id="icon-add-new-task" viewBox="0 0 24 24">
    <path d="M11 13.667H3V11h8V3h2.667v8h8v2.667h-8v8H11z" fill="currentColor" />
  </symbol>

  <symbol id="icon-add-task-to-list" viewBox="0 0 24 24">
    <path d="M15.636 2H8.364A6.364 6.364 0 0 0 2 8.364v7.272A6.364 6.364 0 0 0 8.364 22h7.272A6.364 6.364 0 0 0 22 15.636V8.364A6.364 6.364 0 0 0 15.636 2Z" fill="none" stroke="currentColor" stroke-width="2" />
    <path d="M12 8v8M16 12H8" fill="none" stroke="currentColor" stroke-width="2" stroke-linecap="round" />
  </symbol>

  <symbol id="icon-search" viewBox="0 0 24 24">
    <path d="M9.502 16.004q-2.726 0-4.614-1.888Q3 12.226 3 9.502q0-2.726 1.888-4.614Q6.777 3 9.502 3q2.726 0 4.614 1.888 1.887 1.889 1.888 4.614a6.1 6.1 0 0 1-1.3 3.8l5.6 5.602a.95.95 0 0 1 .276.7.95.95 0 0 1-.275.7.95.95 0 0 1-.7.276.95.95 0 0 1-.7-.275l-5.602-5.602q-.75.6-1.726.95-.975.35-2.075.35m0-2q1.875 0 3.188-1.314 1.314-1.313 1.313-3.188 0-1.875-1.313-3.189-1.313-1.312-3.188-1.312T6.313 6.313Q5.001 7.627 5.001 9.502t1.312 3.188 3.189 1.313" fill="currentColor" />
  </symbol>

  <symbol id="icon-date" viewBox="0 0 24 24">
    <path d="M14.5 18q-1.05 0-1.775-.725T12 15.5t.725-1.775T14.5 13t1.775.725T17 15.5t-.725 1.775T14.5 18M5 22q-.824 0-1.412-.587A1.93 1.93 0 0 1 3 20V6q0-.824.587-1.412A1.93 1.93 0 0 1 5 4h1V3q0-.424.287-.712A.97.97 0 0 1 7 2q.424 0 .713.288Q8 2.575 8 3v1h8V3q0-.424.288-.712A.97.97 0 0 1 17 2q.424 0 .712.288Q18 2.575 18 3v1h1q.824 0 1.413.588Q21 5.175 21 6v14q0 .824-.587 1.413A1.93 1.93 0 0 1 19 22zm0-2h14V10H5zM5 8h14V6H5z" fill="currentColor" />
  </symbol>

  <symbol id="icon-priority-high" viewBox="0 0 24 24">
    <path d="M11.5 10.755c.2 0 .395.061.555.176l7.569 5.434a.92.92 0 0 1 .368.595.89.89 0 0 1-.173.673.952.952 0 0 1-1.304.19l-7.014-5.03-7.014 5.03a.95.95 0 0 1-.693.168.95.95 0 0 1-.611-.358.9.9 0 0 1-.173-.673.9.9 0 0 1 .368-.595l7.569-5.433a.95.95 0 0 1 .554-.177" fill="currentColor" />
    <path d="M11.5 6c.2 0 .395.062.555.177l7.569 5.434a.888.888 0 0 1 .196 1.268.953.953 0 0 1-1.304.19L11.5 8.038l-7.014 5.03a.953.953 0 0 1-1.304-.19.89.89 0 0 1 .195-1.267l7.569-5.434A.95.95 0 0 1 11.5 6" fill="currentColor" />
  </symbol>

  <symbol id="icon-priority-medium" viewBox="0 0 24 24">
    <path d="M20.069 15.333H4.932a.93.93 0 0 1-.66-.274.94.94 0 0 1 0-1.327.93.93 0 0 1 .66-.275h15.137c.247 0 .483.099.658.275a.94.94 0 0 1 0 1.327.93.93 0 0 1-.659.274M20.069 10.877H4.932a.93.93 0 0 1-.66-.275.94.94 0 0 1 0-1.327.93.93 0 0 1 .66-.275h15.137c.247 0 .483.099.658.275a.94.94 0 0 1 0 1.327.93.93 0 0 1-.659.274" fill="currentColor" />
  </symbol>

  <symbol id="icon-priority-low" viewBox="0 0 24 24">
    <path d="M11.501 13.246a.95.95 0 0 1-.554-.176L3.378 7.636a.92.92 0 0 1-.368-.595.89.89 0 0 1 .173-.673.952.952 0 0 1 1.304-.19l7.014 5.03 7.014-5.03a.95.95 0 0 1 .693-.168.95.95 0 0 1 .611.358.9.9 0 0 1 .173.673.9.9 0 0 1-.368.595l-7.569 5.434a.95.95 0 0 1-.554.176" fill="currentColor" />
    <path d="M11.501 18.001a.95.95 0 0 1-.554-.177l-7.569-5.433a.888.888 0 0 1-.196-1.268.953.953 0 0 1 1.304-.19l7.015 5.03 7.014-5.03a.953.953 0 0 1 1.304.19.89.89 0 0 1-.195 1.268l-7.569 5.434a.95.95 0 0 1-.554.176" fill="currentColor" />
  </symbol>

  <symbol id="icon-contact-options" viewBox="0 0 24 24">
    <path d="M12.5 22a2.4 2.4 0 0 1-1.766-.734A2.4 2.4 0 0 1 10 19.5q0-1.03.734-1.766A2.4 2.4 0 0 1 12.5 17q1.032 0 1.766.734T15 19.5t-.734 1.766T12.5 22m0-7.5a2.4 2.4 0 0 1-1.766-.734A2.4 2.4 0 0 1 10 12q0-1.03.734-1.766A2.4 2.4 0 0 1 12.5 9.5q1.032 0 1.766.734Q15 10.97 15 12t-.734 1.766q-.735.734-1.766.734m0-7.5a2.4 2.4 0 0 1-1.766-.734A2.4 2.4 0 0 1 10 4.5q0-1.03.734-1.766A2.4 2.4 0 0 1 12.5 2q1.032 0 1.766.734Q15 3.47 15 4.5t-.734 1.766T12.5 7" fill="currentColor" />
  </symbol>

  <symbol id="icon-add-contact" viewBox="0 0 24 24">
    <path d="M18.361 13.644a.735.735 0 0 1-.755-.744v-2.083h-2.121a.74.74 0 0 1-.758-.746q0-.318.218-.53a.74.74 0 0 1 .54-.212h2.121V7.247q0-.317.219-.53a.74.74 0 0 1 .541-.214.735.735 0 0 1 .755.744v2.082h2.121a.74.74 0 0 1 .758.747.7.7 0 0 1-.218.53.74.74 0 0 1-.54.211h-2.12V12.9q0 .315-.22.53a.74.74 0 0 1-.541.214m-9.088-1.8q-1.5 0-2.493-.975-.992-.974-.992-2.447t.992-2.448T9.273 5t2.492.974.993 2.448-.993 2.447-2.492.975M2.758 19A.74.74 0 0 1 2 18.256v-1.488a2.57 2.57 0 0 1 1.515-2.365q1.605-.721 2.975-1.038 1.369-.316 2.78-.316 1.412 0 2.783.316t2.962 1.038q.705.335 1.118.963.412.63.412 1.402v1.488q0 .316-.217.53a.74.74 0 0 1-.54.214zm.757-1.488H15.03v-.744q0-.32-.163-.602a1 1 0 0 0-.488-.424q-1.47-.707-2.637-.956a11.8 11.8 0 0 0-2.47-.25q-1.302 0-2.469.257t-2.651.949a1.148 1.148 0 0 0-.636 1.027zm5.758-7.156q.84 0 1.405-.554.564-.555.564-1.38t-.564-1.38-1.405-.554-1.406.554q-.564.555-.564 1.38t.564 1.38 1.406.554" fill="currentColor" />
  </symbol>

  <symbol id="icon-add-avatar" viewBox="0 0 24 24">
    <path d="M20.75 17.5a1.25 1.25 0 0 1-1.25 1.25h-15a1.25 1.25 0 0 1-1.25-1.25V10A1.25 1.25 0 0 1 4.5 8.75h1.465a3.75 3.75 0 0 0 2.65-1.099l1.038-1.035a1.25 1.25 0 0 1 .88-.366h2.93c.332 0 .65.132.885.366l1.034 1.035a3.75 3.75 0 0 0 2.653 1.099H19.5A1.25 1.25 0 0 1 20.75 10zM4.5 7.5A2.5 2.5 0 0 0 2 10v7.5A2.5 2.5 0 0 0 4.5 20h15a2.5 2.5 0 0 0 2.5-2.5V10a2.5 2.5 0 0 0-2.5-2.5h-1.465a2.5 2.5 0 0 1-1.768-.732l-1.034-1.035A2.5 2.5 0 0 0 13.465 5h-2.93a2.5 2.5 0 0 0-1.768.732L7.733 6.768a2.5 2.5 0 0 1-1.768.733z" fill="currentColor"/>
    <path d="M12 16.083a3.125 3.125 0 1 1 0-6.25 3.125 3.125 0 0 1 0 6.25m0 1.25a4.375 4.375 0 1 0 0-8.75 4.375 4.375 0 0 0 0 8.75m-6.25-6.875a.625.625 0 1 1-1.25 0 .625.625 0 0 1 1.25 0" fill="currentColor"/>
  </symbol>

  <symbol id="icon-name" viewBox="0 0 24 24">
    <path d="M12 12q-1.65 0-2.825-1.175T8 8t1.175-2.825T12 4t2.825 1.175T16 8t-1.175 2.825T12 12m6 8H6q-.824 0-1.412-.587A1.93 1.93 0 0 1 4 18v-.8q0-.85.438-1.562.437-.713 1.162-1.088a14.8 14.8 0 0 1 3.15-1.163A13.8 13.8 0 0 1 12 13q1.65 0 3.25.387 1.6.388 3.15 1.163.724.375 1.163 1.087Q20 16.35 20 17.2v.8q0 .824-.587 1.413A1.93 1.93 0 0 1 18 20M6 18h12v-.8a.973.973 0 0 0-.5-.85q-1.35-.675-2.725-1.012a11.6 11.6 0 0 0-5.55 0Q7.85 15.675 6.5 16.35a.97.97 0 0 0-.5.85zm6-8q.825 0 1.412-.588Q14 8.826 14 8q0-.824-.588-1.412A1.93 1.93 0 0 0 12 6q-.825 0-1.412.588A1.93 1.93 0 0 0 10 8q0 .825.588 1.412Q11.175 10 12 10" fill="currentColor" />
  </symbol>

  <symbol id="icon-phone" viewBox="0 0 24 24">
    <path d="M19.95 21q-3.125 0-6.175-1.363t-5.55-3.862-3.862-5.55T3 4.05q0-.45.3-.75t.75-.3H8.1a.93.93 0 0 1 .625.237.9.9 0 0 1 .325.563l.65 3.5q.05.4-.025.675T9.4 8.45L6.975 10.9q.5.926 1.188 1.787.687.863 1.512 1.663.775.775 1.625 1.438.85.661 1.8 1.212l2.35-2.35a1.4 1.4 0 0 1 .588-.338 1.6 1.6 0 0 1 .712-.062l3.45.7q.35.1.575.363A.88.88 0 0 1 21 15.9v4.05q0 .45-.3.75t-.75.3M6.025 9l1.65-1.65L7.25 5H5.025q.125 1.024.35 2.025T6.025 9m8.95 8.95q.976.424 1.987.675 1.013.25 2.038.325v-2.2l-2.35-.475z" fill="currentColor" />
  </symbol>

  <symbol id="icon-email" viewBox="0 0 24 24">
    <path d="M4 20q-.824 0-1.412-.587A1.93 1.93 0 0 1 2 18V6q0-.824.587-1.412A1.93 1.93 0 0 1 4 4h16q.824 0 1.413.588Q22 5.175 22 6v12q0 .824-.587 1.413A1.93 1.93 0 0 1 20 20zM20 8l-7.475 4.675a1.04 1.04 0 0 1-.525.15 1.04 1.04 0 0 1-.525-.15L4 8v10h16zm-8 3 8-5H4zM4 8.25V6.775 6.8v-.013z" fill="currentColor" />
  </symbol>

  <symbol id="icon-password" viewBox="0 0 24 24">
    <path d="M5.905 22q-.786 0-1.345-.56A1.83 1.83 0 0 1 4 20.096v-9.524q0-.785.56-1.345t1.345-.56h.952V6.763q0-1.976 1.393-3.37Q9.643 2 11.619 2t3.37 1.393q1.392 1.392 1.392 3.369v1.905h.952q.786 0 1.346.56.56.558.56 1.344v9.524q0 .786-.56 1.346T17.333 22zm0-1.905h11.428v-9.524H5.905zm5.714-2.857q.786 0 1.345-.56.56-.558.56-1.345t-.56-1.345a1.83 1.83 0 0 0-1.345-.56q-.786 0-1.345.56-.56.56-.56 1.345 0 .786.56 1.346t1.345.56M8.762 8.667h5.714V6.762q0-1.19-.833-2.024a2.76 2.76 0 0 0-2.024-.833q-1.19 0-2.024.833a2.76 2.76 0 0 0-.833 2.024z" fill="currentColor" />
  </symbol>

  <symbol id="icon-visibility" viewBox="0 0 24 24">
    <path d="M12 16.2q1.732 0 2.945-1.225T16.157 12t-1.212-2.975T12 7.8 9.055 9.025 7.843 12t1.212 2.975T12 16.2m0-1.68a2.4 2.4 0 0 1-1.767-.735A2.44 2.44 0 0 1 9.506 12q0-1.05.727-1.785A2.4 2.4 0 0 1 12 9.48q1.04 0 1.767.735T14.494 12t-.727 1.785A2.4 2.4 0 0 1 12 14.52M12 19q-3.21 0-5.866-1.715-2.655-1.714-4.019-4.632a.8.8 0 0 1-.092-.291 2.8 2.8 0 0 1 0-.724.8.8 0 0 1 .092-.291Q3.478 8.43 6.134 6.715T12 5t5.866 1.715q2.655 1.714 4.018 4.632a.8.8 0 0 1 .093.291 2.8 2.8 0 0 1 0 .724.8.8 0 0 1-.093.291q-1.362 2.917-4.018 4.632T12 19m0-1.867a8.75 8.75 0 0 0 4.792-1.388A9.1 9.1 0 0 0 20.13 12a9.1 9.1 0 0 0-3.337-3.745A8.75 8.75 0 0 0 12 6.867a8.75 8.75 0 0 0-4.792 1.388A9.1 9.1 0 0 0 3.87 12a9.1 9.1 0 0 0 3.337 3.745A8.75 8.75 0 0 0 12 17.133" fill="currentColor" />
  </symbol>

  <symbol id="icon-visibility-off" viewBox="0 0 24 24">
    <path d="m15.788 13.307-1.34-1.34q.207-1.084-.623-2.032-.832-.946-2.148-.739l-1.34-1.34q.393-.184.797-.276T12 7.487q1.732 0 2.945 1.213t1.212 2.944q0 .462-.092.866-.093.405-.278.797m2.956 2.91-1.34-1.293a10 10 0 0 0 1.559-1.467 8.2 8.2 0 0 0 1.166-1.813 9.1 9.1 0 0 0-3.314-3.706Q14.655 6.564 12 6.564q-.67 0-1.316.092a9 9 0 0 0-1.27.277L7.981 5.501A10.2 10.2 0 0 1 12 4.716q3.303 0 5.935 1.744 2.634 1.743 3.95 4.538a.8.8 0 0 1 .092.288q.023.174.023.358a1.8 1.8 0 0 1-.116.647 10.07 10.07 0 0 1-3.14 3.926m-.185 5.035-3.233-3.187a11 11 0 0 1-1.629.38q-.82.128-1.697.128-3.303 0-5.935-1.744-2.634-1.743-3.95-4.538a.8.8 0 0 1-.092-.289 2.7 2.7 0 0 1 0-.704.7.7 0 0 1 .092-.277q.486-1.04 1.155-1.917.67-.877 1.478-1.617l-1.917-1.94a.86.86 0 0 1-.254-.635.9.9 0 0 1 .277-.658A.88.88 0 0 1 3.502 4q.393 0 .647.254l15.704 15.704q.255.255.266.636a.86.86 0 0 1-.266.658.88.88 0 0 1-.646.254.88.88 0 0 1-.647-.254M6.042 8.78q-.67.6-1.224 1.316-.555.716-.947 1.547a9.1 9.1 0 0 0 3.314 3.707q2.16 1.374 4.815 1.374.462 0 .9-.058.44-.057.901-.127l-.831-.877q-.254.069-.485.104A3 3 0 0 1 12 15.8q-1.732 0-2.945-1.212t-1.212-2.945q0-.253.035-.485.034-.23.104-.485z" fill="currentColor" />
  </symbol>

  <symbol id="icon-checkbox" viewBox="0 0 24 24">
    <path d="M17 4H7a3 3 0 0 0-3 3v10a3 3 0 0 0 3 3h10a3 3 0 0 0 3-3V7a3 3 0 0 0-3-3Z" fill="none" stroke="currentColor" stroke-width="2"/>
  </symbol>

  <symbol id="icon-checkbox-checked" viewBox="0 0 24 24">
    <path d="M20 11v6a3 3 0 0 1-3 3H7a3 3 0 0 1-3-3V7a3 3 0 0 1 3-3h8" fill="none" stroke="currentColor" stroke-width="2" stroke-linecap="round"  />
    <path d="m8 12 4 4 8-11.5" fill="none" stroke="currentColor" stroke-width="2" stroke-linecap="round" stroke-linejoin="round" />
  </symbol>

  <symbol id="icon-move" viewBox="0 0 24 24">
    <path d="M3 6.286v11.428C3 20.081 4.905 22 7.256 22h9.728c2.35 0 4.256-1.919 4.256-4.286V6.286C21.24 3.919 19.334 2 16.984 2H7.256C4.906 2 3 3.919 3 6.286Z" fill="none" stroke="currentColor" stroke-width="1.5"/>
    <path d="m14.822 16.2 1.267-1.275a.63.63 0 0 1 .464-.187q.279 0 .482.187a.66.66 0 0 1 .202.485.66.66 0 0 1-.202.484l-2.416 2.432a.6.6 0 0 1-.22.145.7.7 0 0 1-.252.043.7.7 0 0 1-.254-.043.6.6 0 0 1-.22-.145l-2.431-2.449a.63.63 0 0 1-.195-.476.69.69 0 0 1 .211-.476.7.7 0 0 1 .473-.196q.27-.008.473.196l1.267 1.276V12a.66.66 0 0 1 .194-.485q.194-.195.482-.195.286 0 .48.195a.66.66 0 0 1 .195.485zm-4.053-8.4V12a.66.66 0 0 1-.194.485.65.65 0 0 1-.482.195.65.65 0 0 1-.481-.195.66.66 0 0 1-.194-.485V7.8L8.15 9.074a.63.63 0 0 1-.464.187.664.664 0 0 1-.684-.672q0-.28.202-.485L9.62 5.673a.6.6 0 0 1 .22-.144.7.7 0 0 1 .253-.043q.135 0 .254.043a.6.6 0 0 1 .22.144l2.431 2.45q.203.203.194.476a.69.69 0 0 1-.21.476.7.7 0 0 1-.474.195.62.62 0 0 1-.473-.195z" fill="currentColor" />
  </symbol>

  <symbol id="icon-summary" viewBox="0 0 24 24">
    <path d="M20.182 2H3.6A1.6 1.6 0 0 0 2 3.6v16.8A1.6 1.6 0 0 0 3.6 22h16.8a1.6 1.6 0 0 0 1.6-1.6V3.6A1.6 1.6 0 0 0 20.4 2zm-6.364 18.236h-10v-7.273h10zm0-9.091h-10V3.872h10zm6.364 9.09h-4.546V3.873h4.546z" fill="currentColor" />
  </symbol>

  <symbol id="icon-add-task" viewBox="0 0 24 24">
    <path d="M3.951 22.024q-.804 0-1.378-.573A1.88 1.88 0 0 1 2 20.073V6.415q0-.805.573-1.378a1.88 1.88 0 0 1 1.378-.574h8.708l-1.952 1.952H3.951v13.658H17.61v-6.78l1.951-1.951v8.731q0 .805-.573 1.378a1.88 1.88 0 0 1-1.378.573zm10.903-17 1.39 1.366-6.44 6.44v1.39h1.367l6.463-6.464 1.39 1.366-6.463 6.463a2.1 2.1 0 0 1-.622.427 1.8 1.8 0 0 1-.744.159H8.83a.94.94 0 0 1-.695-.28.94.94 0 0 1-.28-.696V12.83a1.93 1.93 0 0 1 .56-1.366zm4.17 4.098-4.17-4.098 2.439-2.439Q17.878 2 18.695 2t1.378.585l1.366 1.39Q22 4.538 22 5.342q0 .805-.561 1.366z" fill="currentColor" />
  </symbol>

  <symbol id="icon-board" viewBox="0 0 24 24">
    <path d="M17.385 5.538v13.847a1.54 1.54 0 0 1-1.539 1.538H12.77a1.54 1.54 0 0 1-1.538-1.538V5.538A1.54 1.54 0 0 1 12.769 4h3.077a1.54 1.54 0 0 1 1.539 1.538m-4.616 13.847h3.077V5.538H12.77zm0-13.847v13.847a1.54 1.54 0 0 1-1.538 1.538H8.154a1.54 1.54 0 0 1-1.539-1.538V5.538A1.54 1.54 0 0 1 8.154 4h3.077a1.54 1.54 0 0 1 1.538 1.538M8.154 19.385h3.077V5.538H8.154zm0-13.847v13.847a1.54 1.54 0 0 1-1.539 1.538H3.538A1.54 1.54 0 0 1 2 19.385V5.538A1.54 1.54 0 0 1 3.538 4h3.077a1.54 1.54 0 0 1 1.539 1.538M3.538 19.385h3.077V5.538H3.538z" fill="currentColor" />
    <path d="M22 5.539v13.846a1.54 1.54 0 0 1-1.538 1.538h-3.077a1.54 1.54 0 0 1-1.539-1.538V5.538A1.54 1.54 0 0 1 17.385 4h3.077A1.54 1.54 0 0 1 22 5.54m-4.615 13.846h3.077V5.539h-3.077z" fill="currentColor" />
  </symbol>

  <symbol id="icon-contacts" viewBox="0 0 24 24">
    <path d="M12 18q-1.4 0-2.675.438Q8.05 18.875 7 19.75V20h10v-.25a7.3 7.3 0 0 0-2.325-1.312A8.2 8.2 0 0 0 12 18m-7 .85q1.35-1.325 3.138-2.088Q9.925 16 12 16q2.074 0 3.863.762A10.1 10.1 0 0 1 19 18.85V6H5zM12 14a3.37 3.37 0 0 1-2.475-1.025A3.37 3.37 0 0 1 8.5 10.5q0-1.45 1.025-2.475A3.37 3.37 0 0 1 12 7q1.45 0 2.475 1.025A3.37 3.37 0 0 1 15.5 10.5q0 1.45-1.025 2.475A3.37 3.37 0 0 1 12 14m0-2q.624 0 1.063-.437.437-.438.437-1.063t-.437-1.062A1.45 1.45 0 0 0 12 9q-.625 0-1.062.438A1.45 1.45 0 0 0 10.5 10.5q0 .624.438 1.063Q11.375 12 12 12M5 22q-.824 0-1.412-.587A1.93 1.93 0 0 1 3 20V6q0-.824.587-1.412A1.93 1.93 0 0 1 5 4h1V2h2v2h8V2h2v2h1q.824 0 1.413.588Q21 5.175 21 6v14q0 .824-.587 1.413A1.93 1.93 0 0 1 19 22z" fill="currentColor" />
  </symbol>

  <symbol id="icon-log-in" viewBox="0 0 24 24">
    <path d="M12.833 21.5q-.46 0-.771-.311a1.05 1.05 0 0 1-.312-.772q0-.461.312-.772.31-.312.771-.312h6.5V4.167h-6.5q-.46 0-.771-.312a1.05 1.05 0 0 1-.312-.772q0-.46.312-.772.31-.31.771-.311h6.5q.894 0 1.53.636.637.637.637 1.53v15.167q0 .894-.637 1.53a2.09 2.09 0 0 1-1.53.637zm-1.977-8.667H3.083q-.46 0-.772-.311A1.05 1.05 0 0 1 2 11.75q0-.46.311-.772.312-.31.772-.311h7.773L8.825 8.635a1 1 0 0 1-.298-.73q0-.434.298-.76.298-.324.758-.338.461-.014.786.312l3.873 3.873q.324.325.325.758 0 .434-.325.758l-3.873 3.873q-.325.325-.772.312a1.1 1.1 0 0 1-.772-.339 1.05 1.05 0 0 1-.284-.772q.013-.447.311-.745z" fill="currentColor" />
  </symbol>

  <symbol id="icon-help" viewBox="0 0 24 24">
    <path d="M11.95 18q.525 0 .888-.363.362-.362.362-.887t-.362-.887a1.2 1.2 0 0 0-.888-.363q-.525 0-.887.363a1.2 1.2 0 0 0-.363.887q0 .525.363.887.362.363.887.363m.05 4a9.7 9.7 0 0 1-3.9-.788 10.1 10.1 0 0 1-3.175-2.137q-1.35-1.35-2.137-3.175A9.7 9.7 0 0 1 2 12q0-2.075.788-3.9a10.1 10.1 0 0 1 2.137-3.175q1.35-1.35 3.175-2.137A9.7 9.7 0 0 1 12 2q2.075 0 3.9.788a10.1 10.1 0 0 1 3.175 2.137q1.35 1.35 2.137 3.175A9.7 9.7 0 0 1 22 12a9.7 9.7 0 0 1-.788 3.9 10.1 10.1 0 0 1-2.137 3.175q-1.35 1.35-3.175 2.137A9.7 9.7 0 0 1 12 22m0-2q3.35 0 5.675-2.325T20 12t-2.325-5.675T12 4 6.325 6.325 4 12t2.325 5.675T12 20m.1-12.3q.626 0 1.088.4t.462 1q0 .55-.338.975-.337.425-.762.8-.574.5-1.013 1.1-.437.6-.437 1.35 0 .35.263.588.262.237.612.237a.9.9 0 0 0 .638-.25q.262-.25.337-.625.1-.525.45-.937t.75-.788q.575-.55.987-1.2a2.65 2.65 0 0 0 .413-1.45q0-1.275-1.038-2.088Q13.476 6 12.1 6q-.95 0-1.812.4a2.8 2.8 0 0 0-1.313 1.225.9.9 0 0 0-.112.637.74.74 0 0 0 .337.513q.35.2.725.125a1 1 0 0 0 .625-.425q.274-.375.688-.575.412-.2.862-.2" fill="currentColor" />
  </symbol>

</svg>
