<svg width="32" height="32" viewBox="0 0 32 32" fill="none" xmlns="http://www.w3.org/2000/svg">
<mask id="mask0_261630_18541" style="mask-type:alpha" maskUnits="userSpaceOnUse" x="0" y="0" width="32" height="32">
<rect width="32" height="32" fill="#D9D9D9"/>
</mask>
<g mask="url(#mask0_261630_18541)">
<mask id="mask1_261630_18541" style="mask-type:alpha" maskUnits="userSpaceOnUse" x="-1" y="0" width="33" height="32">
<rect x="-0.192871" width="32" height="32" fill="#D9D9D9"/>
</mask>
<g mask="url(#mask1_261630_18541)">
<path d="M14.474 16.1999V8.13322C12.7851 8.44433 11.474 9.261 10.5406 10.5832C9.60729 11.9054 9.14062 13.2666 9.14062 14.6666H8.47396C7.18507 14.6666 6.08507 15.1221 5.17396 16.0332C4.26285 16.9443 3.80729 18.0443 3.80729 19.3332C3.80729 20.6221 4.26285 21.7221 5.17396 22.6332C6.08507 23.5443 7.18507 23.9999 8.47396 23.9999H24.474C25.4073 23.9999 26.1962 23.6777 26.8406 23.0332C27.4851 22.3888 27.8073 21.5999 27.8073 20.6666C27.8073 19.7332 27.4851 18.9443 26.8406 18.2999C26.1962 17.6554 25.4073 17.3332 24.474 17.3332H22.474V14.6666C22.474 13.5999 22.2295 12.6054 21.7406 11.6832C21.2517 10.761 20.6073 9.97766 19.8073 9.33322V6.23322C21.4517 7.011 22.7517 8.161 23.7073 9.68322C24.6628 11.2054 25.1406 12.8666 25.1406 14.6666C26.674 14.8443 27.9462 15.5054 28.9573 16.6499C29.9684 17.7943 30.474 19.1332 30.474 20.6666C30.474 22.3332 29.8906 23.7499 28.724 24.9166C27.5573 26.0832 26.1406 26.6666 24.474 26.6666H8.47396C6.45174 26.6666 4.72396 25.9666 3.29063 24.5666C1.85729 23.1666 1.14062 21.4554 1.14062 19.4332C1.14062 17.6999 1.66285 16.1554 2.70729 14.7999C3.75174 13.4443 5.1184 12.5777 6.80729 12.1999C7.18507 10.5999 8.12951 9.07766 9.64062 7.63322C11.1517 6.18877 12.7628 5.46655 14.474 5.46655C15.2073 5.46655 15.8351 5.72766 16.3573 6.24989C16.8795 6.77211 17.1406 7.39989 17.1406 8.13322V16.1999L18.3406 15.0332C18.5851 14.7888 18.8906 14.6666 19.2573 14.6666C19.624 14.6666 19.9406 14.7999 20.2073 15.0666C20.4517 15.311 20.574 15.6221 20.574 15.9999C20.574 16.3777 20.4517 16.6888 20.2073 16.9332L16.7406 20.3999C16.474 20.6666 16.1628 20.7999 15.8073 20.7999C15.4517 20.7999 15.1406 20.6666 14.874 20.3999L11.4073 16.9332C11.1628 16.6888 11.0351 16.3832 11.024 16.0166C11.0128 15.6499 11.1406 15.3332 11.4073 15.0666C11.6517 14.8221 11.9573 14.6943 12.324 14.6832C12.6906 14.6721 13.0073 14.7888 13.274 15.0332L14.474 16.1999Z" fill="white"/>
</g>
</g>
</svg>
