<svg xmlns="http://www.w3.org/2000/svg" width="24" height="24" fill="none" viewBox="0 0 24 24"><path fill="#29abe2" d="M18.361 13.644a.735.735 0 0 1-.755-.744v-2.083h-2.121a.74.74 0 0 1-.758-.746q0-.318.218-.53a.74.74 0 0 1 .54-.212h2.121V7.247q0-.317.219-.53a.74.74 0 0 1 .541-.214.735.735 0 0 1 .755.744v2.082h2.121a.74.74 0 0 1 .758.747.7.7 0 0 1-.218.53.74.74 0 0 1-.54.211h-2.12V12.9q0 .315-.22.53a.74.74 0 0 1-.541.214m-9.088-1.8q-1.5 0-2.493-.975-.992-.974-.992-2.447t.992-2.448T9.273 5t2.492.974.993 2.448-.993 2.447-2.492.975M2.758 19A.74.74 0 0 1 2 18.256v-1.488a2.57 2.57 0 0 1 1.515-2.365q1.605-.721 2.975-1.038 1.369-.316 2.78-.316 1.412 0 2.783.316t2.962 1.038q.705.335 1.118.963.412.63.412 1.402v1.488q0 .316-.217.53a.74.74 0 0 1-.54.214zm.757-1.488H15.03v-.744q0-.32-.163-.602a1 1 0 0 0-.488-.424q-1.47-.707-2.637-.956a11.8 11.8 0 0 0-2.47-.25q-1.302 0-2.469.257t-2.651.949a1.15 1.15 0 0 0-.636 1.027zm5.758-7.156q.84 0 1.405-.554.564-.555.564-1.38t-.564-1.38-1.405-.554-1.406.554q-.564.555-.564 1.38t.564 1.38 1.406.554"/></svg>