<svg xmlns="http://www.w3.org/2000/svg" width="24" height="24" fill="none" viewBox="0 0 24 24"><path fill="#29abe2" d="M20.75 17.5a1.25 1.25 0 0 1-1.25 1.25h-15a1.25 1.25 0 0 1-1.25-1.25V10A1.25 1.25 0 0 1 4.5 8.75h1.465a3.75 3.75 0 0 0 2.65-1.099l1.038-1.035a1.25 1.25 0 0 1 .88-.366h2.93c.332 0 .65.132.885.366l1.034 1.035a3.75 3.75 0 0 0 2.653 1.099H19.5A1.25 1.25 0 0 1 20.75 10zM4.5 7.5A2.5 2.5 0 0 0 2 10v7.5A2.5 2.5 0 0 0 4.5 20h15a2.5 2.5 0 0 0 2.5-2.5V10a2.5 2.5 0 0 0-2.5-2.5h-1.465a2.5 2.5 0 0 1-1.768-.732l-1.034-1.035A2.5 2.5 0 0 0 13.465 5h-2.93a2.5 2.5 0 0 0-1.768.732L7.733 6.768a2.5 2.5 0 0 1-1.768.733z"/><path fill="#29abe2" d="M12 16.083a3.125 3.125 0 1 1 0-6.25 3.125 3.125 0 0 1 0 6.25m0 1.25a4.375 4.375 0 1 0 0-8.75 4.375 4.375 0 0 0 0 8.75m-6.25-6.875a.625.625 0 1 1-1.25 0 .625.625 0 0 1 1.25 0"/></svg>