<svg xmlns="http://www.w3.org/2000/svg" width="24" height="24" fill="none" viewBox="0 0 24 24"><path fill="#29abe2" d="M3.951 22.024q-.804 0-1.378-.573A1.88 1.88 0 0 1 2 20.073V6.415q0-.805.573-1.378a1.88 1.88 0 0 1 1.378-.574h8.708l-1.952 1.952H3.951v13.658H17.61v-6.78l1.951-1.951v8.731q0 .805-.573 1.378a1.88 1.88 0 0 1-1.378.573zm10.903-17 1.39 1.366-6.44 6.44v1.39h1.367l6.463-6.464 1.39 1.366-6.463 6.463a2.1 2.1 0 0 1-.622.427 1.8 1.8 0 0 1-.744.159H8.83a.94.94 0 0 1-.695-.28.94.94 0 0 1-.28-.696V12.83a1.93 1.93 0 0 1 .56-1.366zm4.17 4.098-4.17-4.098 2.439-2.439Q17.878 2 18.695 2t1.378.585l1.366 1.39Q22 4.538 22 5.342q0 .805-.561 1.366z"/></svg>