<svg xmlns="http://www.w3.org/2000/svg" width="24" height="24" fill="none" viewBox="0 0 24 24"><path fill="#29abe2" d="M11.637 15.438v-9.58a.83.83 0 0 1 .247-.612.83.83 0 0 1 .61-.246.83.83 0 0 1 .611.246.83.83 0 0 1 .247.611v9.581l4.2-4.2a.8.8 0 0 1 .601-.247.86.86 0 0 1 .6.268q.236.257.247.6a.8.8 0 0 1-.247.6l-5.658 5.659a.75.75 0 0 1-.279.182 1 1 0 0 1-.322.053 1 1 0 0 1-.321-.053.75.75 0 0 1-.279-.183L6.236 12.46A.8.8 0 0 1 6 11.87q0-.353.236-.61a.84.84 0 0 1 .61-.258q.354 0 .611.258z"/></svg>