<svg xmlns="http://www.w3.org/2000/svg" width="24" height="24" fill="none" viewBox="0 0 24 24"><path fill="#29abe2" d="M11.637 7.562v9.58a.83.83 0 0 0 .247.611.83.83 0 0 0 .61.247.83.83 0 0 0 .611-.247.83.83 0 0 0 .247-.61V7.562l4.2 4.2a.8.8 0 0 0 .601.247.86.86 0 0 0 .6-.268.9.9 0 0 0 .247-.6.8.8 0 0 0-.247-.6l-5.658-5.659a.75.75 0 0 0-.279-.182 1 1 0 0 0-.322-.053 1 1 0 0 0-.321.053.75.75 0 0 0-.279.182l-5.658 5.659a.8.8 0 0 0-.236.59q0 .353.236.61a.84.84 0 0 0 .61.258q.354 0 .611-.258z"/></svg>