<svg xmlns="http://www.w3.org/2000/svg" width="24" height="24" fill="none" viewBox="0 0 24 24"><path fill="#29abe2" d="M17.385 5.538v13.847a1.54 1.54 0 0 1-1.539 1.538H12.77a1.54 1.54 0 0 1-1.538-1.538V5.538A1.54 1.54 0 0 1 12.769 4h3.077a1.54 1.54 0 0 1 1.539 1.538m-4.616 13.847h3.077V5.538H12.77zm0-13.847v13.847a1.54 1.54 0 0 1-1.538 1.538H8.154a1.54 1.54 0 0 1-1.539-1.538V5.538A1.54 1.54 0 0 1 8.154 4h3.077a1.54 1.54 0 0 1 1.538 1.538M8.154 19.385h3.077V5.538H8.154zm0-13.847v13.847a1.54 1.54 0 0 1-1.539 1.538H3.538A1.54 1.54 0 0 1 2 19.385V5.538A1.54 1.54 0 0 1 3.538 4h3.077a1.54 1.54 0 0 1 1.539 1.538M3.538 19.385h3.077V5.538H3.538z"/><path fill="#29abe2" d="M22 5.539v13.846a1.54 1.54 0 0 1-1.538 1.538h-3.077a1.54 1.54 0 0 1-1.539-1.538V5.538A1.54 1.54 0 0 1 17.385 4h3.077A1.54 1.54 0 0 1 22 5.54m-4.615 13.846h3.077V5.539h-3.077z"/></svg>