<svg xmlns="http://www.w3.org/2000/svg" width="24" height="24" fill="none" viewBox="0 0 24 24"><path fill="#29abe2" d="M12.5 22a2.4 2.4 0 0 1-1.766-.734A2.4 2.4 0 0 1 10 19.5q0-1.03.734-1.766A2.4 2.4 0 0 1 12.5 17q1.032 0 1.766.734T15 19.5t-.734 1.766T12.5 22m0-7.5a2.4 2.4 0 0 1-1.766-.734A2.4 2.4 0 0 1 10 12q0-1.03.734-1.766A2.4 2.4 0 0 1 12.5 9.5q1.032 0 1.766.734Q15 10.97 15 12t-.734 1.766q-.735.734-1.766.734m0-7.5a2.4 2.4 0 0 1-1.766-.734A2.4 2.4 0 0 1 10 4.5q0-1.03.734-1.766A2.4 2.4 0 0 1 12.5 2q1.032 0 1.766.734Q15 3.47 15 4.5t-.734 1.766T12.5 7"/></svg>