<svg xmlns="http://www.w3.org/2000/svg" width="24" height="24" fill="none" viewBox="0 0 24 24"><path fill="#29abe2" d="M12 18q-1.4 0-2.675.438Q8.05 18.875 7 19.75V20h10v-.25a7.3 7.3 0 0 0-2.325-1.312A8.2 8.2 0 0 0 12 18m-7 .85q1.35-1.325 3.138-2.088Q9.925 16 12 16q2.074 0 3.863.762A10.1 10.1 0 0 1 19 18.85V6H5zM12 14a3.37 3.37 0 0 1-2.475-1.025A3.37 3.37 0 0 1 8.5 10.5q0-1.45 1.025-2.475A3.37 3.37 0 0 1 12 7q1.45 0 2.475 1.025A3.37 3.37 0 0 1 15.5 10.5q0 1.45-1.025 2.475A3.37 3.37 0 0 1 12 14m0-2q.624 0 1.063-.437.437-.438.437-1.063t-.437-1.062A1.45 1.45 0 0 0 12 9q-.625 0-1.062.438A1.45 1.45 0 0 0 10.5 10.5q0 .624.438 1.063Q11.375 12 12 12M5 22q-.824 0-1.412-.587A1.93 1.93 0 0 1 3 20V6q0-.824.587-1.412A1.93 1.93 0 0 1 5 4h1V2h2v2h8V2h2v2h1q.824 0 1.413.588Q21 5.175 21 6v14q0 .824-.587 1.413A1.93 1.93 0 0 1 19 22z"/></svg>