<svg xmlns="http://www.w3.org/2000/svg" width="24" height="24" fill="none" viewBox="0 0 24 24"><path fill="#29abe2" d="M14.5 18q-1.05 0-1.775-.725T12 15.5t.725-1.775T14.5 13t1.775.725T17 15.5t-.725 1.775T14.5 18M5 22q-.824 0-1.412-.587A1.93 1.93 0 0 1 3 20V6q0-.824.587-1.412A1.93 1.93 0 0 1 5 4h1V3q0-.424.287-.712A.97.97 0 0 1 7 2q.424 0 .713.288Q8 2.575 8 3v1h8V3q0-.424.288-.712A.97.97 0 0 1 17 2q.424 0 .712.288Q18 2.575 18 3v1h1q.824 0 1.413.588Q21 5.175 21 6v14q0 .824-.587 1.413A1.93 1.93 0 0 1 19 22zm0-2h14V10H5zM5 8h14V6H5z"/></svg>