<svg xmlns="http://www.w3.org/2000/svg" width="24" height="24" fill="none" viewBox="0 0 24 24"><path fill="#29abe2" d="M6.375 22a2.18 2.18 0 0 1-1.59-.653 2.13 2.13 0 0 1-.66-1.57V5.334q-.478 0-.802-.32A1.07 1.07 0 0 1 3 4.224q0-.474.323-.792.324-.32.802-.32h4.5q0-.473.323-.792Q9.272 2 9.75 2h4.5q.478 0 .802.32.323.318.323.791h4.5q.478 0 .802.32.323.319.323.791t-.323.792-.802.32v14.444q0 .916-.66 1.57a2.18 2.18 0 0 1-1.59.652zm0-16.667v14.445h11.25V5.333zm2.25 11.111q0 .473.323.792.324.32.802.32t.802-.32.323-.792V8.667q0-.473-.323-.792a1.1 1.1 0 0 0-.802-.32q-.478 0-.802.32a1.07 1.07 0 0 0-.323.792zm4.5 0q0 .473.323.792.324.32.802.32t.802-.32.323-.792V8.667q0-.473-.323-.792a1.1 1.1 0 0 0-.802-.32q-.478 0-.802.32a1.07 1.07 0 0 0-.323.792z"/></svg>