<svg xmlns="http://www.w3.org/2000/svg" width="24" height="24" fill="none" viewBox="0 0 24 24"><path fill="#29abe2" d="M11.09 12.088V6.761q-1.726.308-2.68 1.618t-.955 2.697H7q-1.319 0-2.25.902-.932.902-.932 2.18 0 1.276.932 2.179.931.902 2.25.902h10.91q.953 0 1.613-.638.66-.639.659-1.563 0-.925-.66-1.563-.658-.639-1.613-.639h-1.364v-1.76a4.04 4.04 0 0 0-.5-1.97 5 5 0 0 0-1.318-1.553V5.506a6.15 6.15 0 0 1 2.66 2.279 5.93 5.93 0 0 1 .977 3.29q1.568.177 2.602 1.31A3.8 3.8 0 0 1 22 15.038q0 1.65-1.193 2.806T17.909 19H7q-2.068 0-3.534-1.387Q2 16.227 2 14.223q0-1.716 1.068-3.06 1.068-1.342 2.796-1.716.386-1.585 1.931-3.016Q9.341 5 11.091 5q.75 0 1.284.517.534.518.534 1.244v5.327l.818-.77a.86.86 0 0 1 .625-.242.9.9 0 0 1 .648.264q.25.242.25.616 0 .375-.25.616l-2.364 2.29a.9.9 0 0 1-.636.264.9.9 0 0 1-.636-.264L9 12.572a.85.85 0 0 1-.261-.605A.8.8 0 0 1 9 11.34a.9.9 0 0 1 .625-.254.9.9 0 0 1 .648.232z"/></svg>