<svg xmlns="http://www.w3.org/2000/svg" width="24" height="24" fill="none" viewBox="0 0 24 24"><path fill="#29abe2" d="M12.833 21.5q-.46 0-.771-.311a1.05 1.05 0 0 1-.312-.772q0-.461.312-.772.31-.312.771-.312h6.5V4.167h-6.5q-.46 0-.771-.312a1.05 1.05 0 0 1-.312-.772q0-.46.312-.772.31-.31.771-.311h6.5q.894 0 1.53.636.637.637.637 1.53v15.167q0 .894-.637 1.53a2.1 2.1 0 0 1-1.53.637zm-1.977-8.667H3.083q-.46 0-.772-.311A1.05 1.05 0 0 1 2 11.75q0-.46.311-.772.312-.31.772-.311h7.773L8.825 8.635a1 1 0 0 1-.298-.73q0-.434.298-.76.298-.324.758-.338.461-.014.786.312l3.873 3.873q.324.325.325.758 0 .434-.325.758l-3.873 3.873q-.325.325-.772.312a1.1 1.1 0 0 1-.772-.339 1.05 1.05 0 0 1-.284-.772q.013-.447.311-.745z"/></svg>