<svg xmlns="http://www.w3.org/2000/svg" width="24" height="24" fill="none" viewBox="0 0 24 24"><path stroke="#29abe2" stroke-width="1.5" d="M3 6.286v11.428C3 20.081 4.905 22 7.256 22h9.728c2.35 0 4.256-1.919 4.256-4.286V6.286C21.24 3.919 19.334 2 16.984 2H7.256C4.906 2 3 3.919 3 6.286Z"/><path fill="#29abe2" d="m14.822 16.2 1.267-1.275a.63.63 0 0 1 .464-.187q.279 0 .482.187a.66.66 0 0 1 .202.485.66.66 0 0 1-.202.484l-2.416 2.432a.6.6 0 0 1-.22.145.7.7 0 0 1-.252.043.7.7 0 0 1-.254-.043.6.6 0 0 1-.22-.145l-2.431-2.449a.63.63 0 0 1-.195-.476.7.7 0 0 1 .211-.476.7.7 0 0 1 .473-.196q.27-.008.473.196l1.267 1.276V12a.66.66 0 0 1 .194-.485q.194-.195.482-.195.286 0 .48.195a.66.66 0 0 1 .195.485zm-4.053-8.4V12a.66.66 0 0 1-.194.485.65.65 0 0 1-.482.195.65.65 0 0 1-.481-.195.66.66 0 0 1-.194-.485V7.8L8.15 9.074a.63.63 0 0 1-.464.187.664.664 0 0 1-.684-.672q0-.28.202-.485L9.62 5.673a.6.6 0 0 1 .22-.144.7.7 0 0 1 .253-.043q.135 0 .254.043a.6.6 0 0 1 .22.144l2.431 2.45q.203.203.194.476a.7.7 0 0 1-.21.476.7.7 0 0 1-.474.195.62.62 0 0 1-.473-.195z"/></svg>