<svg xmlns="http://www.w3.org/2000/svg" width="24" height="24" fill="none" viewBox="0 0 24 24"><path fill="#29abe2" d="M5.905 22q-.786 0-1.345-.56A1.83 1.83 0 0 1 4 20.096v-9.524q0-.785.56-1.345t1.345-.56h.952V6.763q0-1.976 1.393-3.37Q9.643 2 11.619 2t3.37 1.393q1.392 1.392 1.392 3.369v1.905h.952q.786 0 1.346.56.56.558.56 1.344v9.524q0 .786-.56 1.346T17.333 22zm0-1.905h11.428v-9.524H5.905zm5.714-2.857q.786 0 1.345-.56.56-.558.56-1.345t-.56-1.345a1.83 1.83 0 0 0-1.345-.56q-.786 0-1.345.56-.56.56-.56 1.345 0 .786.56 1.346t1.345.56M8.762 8.667h5.714V6.762q0-1.19-.833-2.024a2.76 2.76 0 0 0-2.024-.833q-1.19 0-2.024.833a2.76 2.76 0 0 0-.833 2.024z"/></svg>