<svg xmlns="http://www.w3.org/2000/svg" width="24" height="24" fill="none" viewBox="0 0 24 24"><path fill="#29abe2" d="M11.5 10.755c.2 0 .395.061.555.176l7.569 5.434a.92.92 0 0 1 .368.595.9.9 0 0 1-.173.673.95.95 0 0 1-1.304.19l-7.014-5.03-7.014 5.03a.95.95 0 0 1-.693.168.95.95 0 0 1-.611-.358.9.9 0 0 1-.173-.673.9.9 0 0 1 .368-.595l7.569-5.433a.95.95 0 0 1 .554-.177"/><path fill="#29abe2" d="M11.5 6c.2 0 .395.062.555.177l7.569 5.434a.89.89 0 0 1 .196 1.268.953.953 0 0 1-1.304.19L11.5 8.038l-7.014 5.03a.953.953 0 0 1-1.304-.19.89.89 0 0 1 .195-1.267l7.569-5.434A.95.95 0 0 1 11.5 6"/></svg>