<svg xmlns="http://www.w3.org/2000/svg" width="24" height="24" fill="none" viewBox="0 0 24 24"><path fill="#29abe2" d="M11.501 13.246a.95.95 0 0 1-.554-.176L3.378 7.636a.92.92 0 0 1-.368-.595.9.9 0 0 1 .173-.673.95.95 0 0 1 1.304-.19l7.014 5.03 7.014-5.03a.95.95 0 0 1 .693-.168.95.95 0 0 1 .611.358.9.9 0 0 1 .173.673.9.9 0 0 1-.368.595l-7.569 5.434a.95.95 0 0 1-.554.176"/><path fill="#29abe2" d="M11.501 18.001a.95.95 0 0 1-.554-.177l-7.569-5.433a.89.89 0 0 1-.196-1.268.953.953 0 0 1 1.304-.19l7.015 5.03 7.014-5.03a.953.953 0 0 1 1.304.19.89.89 0 0 1-.195 1.268l-7.569 5.434a.95.95 0 0 1-.554.176"/></svg>