<svg xmlns="http://www.w3.org/2000/svg" width="24" height="24" fill="none" viewBox="0 0 24 24"><path fill="#29abe2" d="M9.502 16.004q-2.726 0-4.614-1.888Q3 12.226 3 9.502q0-2.726 1.888-4.614Q6.777 3 9.502 3q2.726 0 4.614 1.888 1.887 1.889 1.888 4.614a6.1 6.1 0 0 1-1.3 3.8l5.6 5.602a.95.95 0 0 1 .276.7.95.95 0 0 1-.275.7.95.95 0 0 1-.7.276.95.95 0 0 1-.7-.275l-5.602-5.602q-.75.6-1.726.95-.975.35-2.075.35m0-2q1.875 0 3.188-1.314 1.314-1.313 1.313-3.188 0-1.875-1.313-3.189Q11.377 5 9.502 5T6.313 6.313Q5.001 7.627 5.001 9.502t1.312 3.188 3.189 1.313"/></svg>