<svg xmlns="http://www.w3.org/2000/svg" width="24" height="24" fill="none" viewBox="0 0 24 24"><path fill="#29abe2" d="M12 16.2q1.732 0 2.945-1.225T16.157 12t-1.212-2.975T12 7.8 9.055 9.025 7.843 12t1.212 2.975T12 16.2m0-1.68a2.4 2.4 0 0 1-1.767-.735A2.44 2.44 0 0 1 9.506 12q0-1.05.727-1.785A2.4 2.4 0 0 1 12 9.48q1.04 0 1.767.735T14.494 12t-.727 1.785A2.4 2.4 0 0 1 12 14.52M12 19q-3.21 0-5.866-1.715-2.655-1.714-4.019-4.632a.8.8 0 0 1-.092-.291 2.8 2.8 0 0 1 0-.724.8.8 0 0 1 .092-.291Q3.478 8.43 6.134 6.715T12 5t5.866 1.715 4.018 4.632a.8.8 0 0 1 .093.291 2.8 2.8 0 0 1 0 .724.8.8 0 0 1-.093.291q-1.362 2.917-4.018 4.632T12 19m0-1.867a8.75 8.75 0 0 0 4.792-1.388A9.1 9.1 0 0 0 20.13 12a9.1 9.1 0 0 0-3.337-3.745A8.75 8.75 0 0 0 12 6.867a8.75 8.75 0 0 0-4.792 1.388A9.1 9.1 0 0 0 3.87 12a9.1 9.1 0 0 0 3.337 3.745A8.75 8.75 0 0 0 12 17.133"/></svg>