<svg xmlns="http://www.w3.org/2000/svg" width="24" height="24" fill="none"><path fill="#29abe2" d="m15.788 13.307-1.34-1.34q.207-1.084-.623-2.032-.832-.946-2.148-.739l-1.34-1.34q.393-.184.797-.276T12 7.487q1.732 0 2.945 1.213t1.212 2.944q0 .462-.092.866-.093.405-.278.797m2.956 2.91-1.34-1.293a10 10 0 0 0 1.559-1.467 8.2 8.2 0 0 0 1.166-1.813 9.1 9.1 0 0 0-3.314-3.706Q14.655 6.564 12 6.564q-.67 0-1.316.092a9 9 0 0 0-1.27.277L7.981 5.501A10.2 10.2 0 0 1 12 4.716q3.303 0 5.935 1.744 2.634 1.743 3.95 4.538a.8.8 0 0 1 .092.288q.023.174.023.358a1.8 1.8 0 0 1-.116.647 10.07 10.07 0 0 1-3.14 3.926m-.185 5.035-3.233-3.187a11 11 0 0 1-1.629.38q-.82.128-1.697.128-3.303 0-5.935-1.744-2.634-1.743-3.95-4.538a.8.8 0 0 1-.092-.289 2.7 2.7 0 0 1 0-.704.7.7 0 0 1 .092-.277q.486-1.04 1.155-1.917.67-.877 1.478-1.617l-1.917-1.94a.86.86 0 0 1-.254-.635.9.9 0 0 1 .277-.658A.88.88 0 0 1 3.502 4q.393 0 .647.254l15.704 15.704q.255.255.266.636a.86.86 0 0 1-.266.658.88.88 0 0 1-.646.254.88.88 0 0 1-.647-.254M6.042 8.78q-.67.6-1.224 1.316-.555.716-.947 1.547a9.1 9.1 0 0 0 3.314 3.707q2.16 1.374 4.815 1.374.462 0 .9-.058.44-.057.901-.127l-.831-.877q-.254.069-.485.104A3 3 0 0 1 12 15.8q-1.732 0-2.945-1.212t-1.212-2.945q0-.253.035-.485.034-.23.104-.485z"/></svg>