<svg xmlns="http://www.w3.org/2000/svg" width="24" height="24" fill="none" viewBox="0 0 24 24"><path fill="#29abe2" d="M7.69 10.535q-.485 0-.81-.327a1.1 1.1 0 0 1-.328-.811q0-.484.327-.81.327-.328.81-.328h3.415q.484 0 .81.327.328.327.328.81 0 .485-.327.812a1.1 1.1 0 0 1-.811.327zm1.707 6.259q-3.1 0-5.25-2.148Q2 12.498 2 9.396q0-3.1 2.148-5.248T9.397 2q3.1 0 5.249 2.148t2.148 5.249a6.94 6.94 0 0 1-1.48 4.324l6.373 6.373q.313.312.313.796t-.313.797a1.08 1.08 0 0 1-.797.313 1.08 1.08 0 0 1-.796-.313l-6.373-6.373a6.94 6.94 0 0 1-4.324 1.48m0-2.276q2.133 0 3.627-1.494t1.494-3.627-1.494-3.627-3.627-1.494T5.77 5.77Q4.276 7.262 4.276 9.397q0 2.133 1.494 3.627 1.492 1.494 3.627 1.494"/></svg>